<svg xmlns="http://www.w3.org/2000/svg" viewBox="0 0 1292.87 280.68"><defs><style>.cls-1{fill:#124b99;}.cls-2{fill:#fff;}</style></defs><g id="Layer_2" data-name="Layer 2"><g id="Layer_1-2" data-name="Layer 1"><path class="cls-1" d="M290.65,0H99.59Q4.38,0,0,108.66H51.05q2.51-22.47,11.59-35.28T88.32,60.54h84.25L6.58,280.68h259l25-60.14H120.27Z"/><rect class="cls-1" x="425.02" y="72.75" width="53.56" height="207.93"/><path class="cls-1" d="M612.16,76.59q-8-23.67-22.41-40.7a100.26,100.26,0,0,0-34.6-26.47Q535,0,510.52,0H290.65V280.68h52.93V66.16H510.52q56.37,0,56.37,74.18V280.68h53.25v-152Q620.14,100.26,612.16,76.59Z"/><path class="cls-1" d="M612.16,76.59q-8-23.67-22.41-40.7a100.26,100.26,0,0,0-34.6-26.47Q535,0,510.52,0H290.65V280.68h52.93V66.16H510.52q56.37,0,56.37,74.18V280.68h53.25v-152Q620.14,100.26,612.16,76.59Z"/><rect class="cls-1" x="641.35" y="24.41" width="651.52" height="231.86"/><path class="cls-2" d="M782.77,152.85q0,67.11-46.25,67.11H658V182.2h83.78a13.67,13.67,0,0,0,11.85-6.15c2.85-4.08,4.67-10,5.45-17.74H658V127.83q0-67.11,46.39-67.11h78V98.25H699q-15.57,0-17.46,24.35H782.77Z"/><rect class="cls-2" x="800.8" y="60.72" width="24.73" height="159.25"/><path class="cls-2" d="M977.65,220H844V140.12a152.26,152.26,0,0,1,3.35-33.45q3.35-14.78,9.82-25a45.19,45.19,0,0,1,15.92-15.58,43.34,43.34,0,0,1,21.68-5.34h82.32V98.25H895.19a35,35,0,0,0-12.87,2.06,16.75,16.75,0,0,0-8.22,6.93c-2,3.26-3.47,7.7-4.29,13.31a146.89,146.89,0,0,0-1.24,20.92V182.2h84.36V158.31H934.46V122.6h43.19Z"/><path class="cls-2" d="M1133.13,220H1107q-21.11-45-41.24-73.71t-40.06-40.49a29.58,29.58,0,0,1-3.14-1.71l-3.56-2.16c.29,5.77.44,9.48.44,11.15V220H995.25V60.72h21.39a125.31,125.31,0,0,1,23.92,15.93,214.73,214.73,0,0,1,22.83,22.29,303.47,303.47,0,0,1,21.53,27.29q10.39,14.8,20,31l4.51,7.5q-.43-7.05-.44-10.47V60.72h24.14Z"/><path class="cls-2" d="M1276.25,152.85q0,67.11-46.25,67.11h-78.54V182.2h83.77a13.67,13.67,0,0,0,11.86-6.15c2.85-4.08,4.67-10,5.45-17.74H1151.46V127.83q0-67.11,46.39-67.11h78V98.25h-83.33q-15.57,0-17.46,24.35h101.23Z"/></g></g></svg>